# xmcd CD database file
#
# Track frame offsets:
#	150
#	29597
#	53102
#	77515
#	106115
#	125900
#	151292
#	176502
#	207167
#
# Disc length: 2911 seconds
#
# Revision: 1
# Processed by: cddbd v1.5.1PL2 Copyright (c) Steve Scherf et al.
# Submitted via: CDex 1.60beta1
#
DISCID=700b5d09
DTITLE=Vasvári Pál - Aqvarell
DYEAR=1997
DGENRE=Jazz
TTITLE0=Macho
TTITLE1=Szalamandra
TTITLE2=Árnyas u.5.
TTITLE3=Relax
TTITLE4=Háborúba megy a sáska
TTITLE5=Egy tál lencse
TTITLE6=Iguana
TTITLE7=A rózsa neve
TTITLE8=The End
EXTD=YEAR: 1997
EXTT0=
EXTT1=
EXTT2=
EXTT3=
EXTT4=
EXTT5=
EXTT6=
EXTT7=
EXTT8=
PLAYORDER=
